<svg width="113" height="99" viewBox="0 0 113 99" fill="none" xmlns="http://www.w3.org/2000/svg">
<path d="M2.09 50V2.755H16.5L20.46 31.575L24.42 2.755H38.94V50H30.305V15.955L24.86 50H16.39L10.615 15.955V50H2.09Z" fill="white"/>
<path d="M41.525 22.275H43.625C43.925 22.275 44.075 22.15 44.075 21.9C44.075 21.7833 44.0667 21.6917 44.05 21.625L41.2 3.7H45.375L46.2 12.625L46.6 17.175L47.075 12.625L48.05 3.7H52.25L48.85 22.95C48.7333 23.6667 48.4917 24.1917 48.125 24.525C47.775 24.875 47.2167 25.05 46.45 25.05H41.525V22.275Z" fill="white"/>
<path d="M47.2 49.2C43.55 49.2 41.725 47.3083 41.725 43.525V36.175C41.725 34.4417 42.2083 33.0667 43.175 32.05C44.1583 31.0167 45.5 30.5 47.2 30.5C48.9 30.5 50.2333 31.0167 51.2 32.05C52.1833 33.0667 52.675 34.4417 52.675 36.175V43.525C52.675 47.3083 50.85 49.2 47.2 49.2ZM47.2 45.825C47.55 45.825 47.8083 45.7 47.975 45.45C48.1417 45.2 48.225 44.8583 48.225 44.425V35.475C48.225 34.4083 47.8833 33.875 47.2 33.875C46.5167 33.875 46.175 34.4083 46.175 35.475V44.425C46.175 44.8583 46.2583 45.2 46.425 45.45C46.5917 45.7 46.85 45.825 47.2 45.825ZM61.3768 49.2C60.1768 49.2 59.3184 48.4833 58.8018 47.05V49H54.3018V27.4H58.8018V31.575C59.5018 30.8583 60.3184 30.5 61.2518 30.5C62.6684 30.5 63.6851 30.925 64.3018 31.775C64.9184 32.6083 65.2268 33.8167 65.2268 35.4V44.225C65.2268 45.725 64.9101 46.9333 64.2768 47.85C63.6434 48.75 62.6768 49.2 61.3768 49.2ZM59.9018 45.8C60.2018 45.8 60.4101 45.7083 60.5268 45.525C60.6601 45.325 60.7351 45.0833 60.7518 44.8C60.7851 44.5 60.8018 44.0417 60.8018 43.425V35.8C60.8018 35.15 60.7434 34.6667 60.6268 34.35C60.5101 34.0333 60.2601 33.875 59.8768 33.875C59.4601 33.875 59.1768 34.0333 59.0268 34.35C58.8768 34.6667 58.8018 35.1333 58.8018 35.75V43.425C58.8018 44.225 58.8684 44.825 59.0018 45.225C59.1351 45.6083 59.4351 45.8 59.9018 45.8ZM66.8012 29.475V26.425H71.1762V29.475H66.8012ZM66.8012 49V30.7H71.1762V49H66.8012ZM72.9053 49V27.4H77.3553V49H72.9053Z" fill="white"/>
<path d="M109.897 98.3337L97.4116 98.321C93.6349 98.3171 90.9412 97.0861 89.3303 94.6278C87.7195 92.2061 86.9164 88.6486 86.9212 83.9553C86.926 79.262 87.6446 75.7244 89.077 73.3425C90.5094 70.9606 93.0773 69.7716 96.7807 69.7753L100.631 69.7793L100.65 51.0793L109.945 51.0887L109.897 98.3337ZM100.072 78.3037C98.9353 78.3025 98.1101 78.5034 97.5964 78.9062C97.0459 79.3456 96.697 79.9503 96.5495 80.7201C96.3654 81.5266 96.2725 82.6632 96.271 84.1298C96.269 86.1098 96.4876 87.54 96.9267 88.4205C97.3658 89.3009 98.2453 89.7418 99.5653 89.7432L100.61 89.7442L100.622 78.3043L100.072 78.3037ZM85.1953 72.6635L80.6953 72.6589L80.7005 67.5589C80.2325 68.8918 79.3402 69.5576 78.0235 69.5562C76.7902 69.555 75.8572 69.1623 75.2247 68.3784C74.5922 67.5944 74.2766 66.5191 74.278 65.1524L74.2923 51.0524L78.6673 51.0569L78.6533 64.8819C78.6528 65.2819 78.7442 65.6069 78.9273 65.8571C79.1103 66.1073 79.3769 66.2326 79.7269 66.233C80.0269 66.2333 80.2687 66.1002 80.4523 65.8337C80.6192 65.5839 80.7029 65.2756 80.7032 64.9089L80.7173 51.059L85.2173 51.0635L85.1953 72.6635ZM67.2705 50.8452C70.9205 50.849 72.7436 52.7425 72.7397 56.5258L72.7322 63.8758C72.7304 65.6092 72.2457 66.9837 71.278 67.9993C70.2936 69.0317 68.9514 69.547 67.2514 69.5452C65.5514 69.5435 64.2186 69.0255 63.253 67.9912C62.2707 66.9735 61.7804 65.598 61.7822 63.8647L61.7897 56.5147C61.7936 52.7313 63.6205 50.8415 67.2705 50.8452ZM67.267 54.2202C66.917 54.2199 66.6586 54.3446 66.4917 54.5945C66.3247 54.8443 66.2411 55.1859 66.2406 55.6192L66.2315 64.5692C66.2304 65.6359 66.5715 66.1695 67.2549 66.1702C67.9382 66.1709 68.2804 65.638 68.2815 64.5713L68.2906 55.6213C68.2911 55.188 68.2081 54.8462 68.0417 54.596C67.8752 54.3459 67.617 54.2206 67.267 54.2202ZM56.3937 50.8342C57.5437 50.8353 58.3352 51.0778 58.768 51.5616C59.2008 52.0454 59.4167 52.8206 59.4156 53.8872L59.404 65.3122L60.629 65.3135L60.6256 68.6385L59.4006 68.6372L59.3966 72.5122L55.1466 72.5079L55.1506 68.6329L53.9006 68.6316L53.904 65.3066L55.154 65.3079L55.1645 55.0329C55.1648 54.7162 55.14 54.4829 55.0902 54.3328C55.0403 54.1828 54.9071 54.1076 54.6904 54.1074C54.5237 54.1073 54.3654 54.1154 54.2154 54.1319C54.0654 54.1485 53.9653 54.1567 53.9153 54.1566L53.9184 51.1566C54.1685 51.0902 54.5352 51.0239 55.0186 50.9578C55.4854 50.8749 55.9437 50.8337 56.3937 50.8342ZM47.2265 50.8248C50.8765 50.8285 52.6996 52.7221 52.6958 56.5054L52.6883 63.8554C52.6865 65.5887 52.2018 66.9632 51.2341 67.9789C50.2497 69.0112 48.9075 69.5265 47.2075 69.5248C45.5075 69.5231 44.1747 69.0051 43.2091 67.9707C42.2268 66.9531 41.7365 65.5776 41.7383 63.8442L41.7458 56.4942C41.7496 52.7109 43.5765 50.8211 47.2265 50.8248ZM47.2231 54.1998C46.8731 54.1995 46.6146 54.3242 46.4477 54.574C46.2808 54.8239 46.1971 55.1654 46.1967 55.5988L46.1876 64.5488C46.1865 65.6154 46.5276 66.1491 47.2109 66.1498C47.8943 66.1505 48.2365 65.6175 48.2376 64.5509L48.2467 55.6009C48.2471 55.1675 48.1641 54.8258 47.9977 54.5756C47.8313 54.3254 47.5731 54.2002 47.2231 54.1998ZM35.0998 50.8125C38.7165 50.8161 40.5229 52.6513 40.5192 56.318L40.4927 57.768L36.1177 57.7635L36.0949 55.6135C36.0953 55.1801 36.0124 54.8467 35.8459 54.6132C35.6795 54.3964 35.4046 54.2878 35.0213 54.2874C34.4379 54.2868 34.1458 54.7615 34.1448 55.7115C34.1441 56.4115 34.2852 56.9616 34.5681 57.3619C34.8344 57.7622 35.2673 58.1876 35.8668 58.6382L38.19 60.4406C38.9894 61.0581 39.5637 61.692 39.913 62.3424C40.2624 63.0094 40.4364 63.9429 40.4352 65.1429C40.4342 66.0762 40.1918 66.8677 39.7078 67.5172C39.2071 68.1833 38.5483 68.6827 37.7312 69.0152C36.9142 69.3477 36.0057 69.5134 35.0057 69.5124C31.4557 69.5088 29.6825 67.7403 29.6861 64.207L29.6865 63.857L34.2115 63.8616L34.2108 64.5616C34.2103 64.9949 34.285 65.3616 34.4347 65.6618C34.5677 65.9786 34.8008 66.1372 35.1342 66.1375C35.4342 66.1378 35.6676 66.0464 35.8345 65.8632C35.9846 65.6967 36.0599 65.4634 36.0602 65.1634C36.0608 64.4968 35.803 63.9799 35.2868 63.6127L32.5888 61.6349C31.6228 60.9173 30.882 60.1332 30.3662 59.2826C29.8503 58.4488 29.5931 57.3902 29.5944 56.1069C29.5961 54.4069 30.0808 53.099 31.0484 52.1833C32.016 51.2677 33.3665 50.8107 35.0998 50.8125Z" fill="white"/>
</svg>
